<svg width="26" height="27" viewBox="0 0 26 27" fill="none" xmlns="http://www.w3.org/2000/svg">
<path d="M11.9999 6.10352e-05C12.3823 0.000485096 12.75 0.14688 13.028 0.409334C13.306 0.671787 13.4733 1.03049 13.4957 1.41215C13.5181 1.79382 13.3939 2.16963 13.1485 2.46281C12.9032 2.75599 12.5551 2.94441 12.1754 2.98956L11.9999 3.00006H4.49994C4.13254 3.00011 3.77793 3.13499 3.50338 3.37913C3.22883 3.62327 3.05343 3.95968 3.01044 4.32456L2.99994 4.50006V22.5001C2.99999 22.8675 3.13487 23.2221 3.37901 23.4966C3.62315 23.7712 3.95956 23.9466 4.32444 23.9896L4.49994 24.0001H11.2499C11.6323 24.0005 12 24.1469 12.278 24.4093C12.556 24.6718 12.7233 25.0305 12.7457 25.4122C12.7681 25.7938 12.6439 26.1696 12.3985 26.4628C12.1532 26.756 11.8051 26.9444 11.4254 26.9896L11.2499 27.0001H4.49994C3.35212 27.0001 2.24767 26.5616 1.41255 25.7741C0.577429 24.9867 0.0747777 23.9099 0.00743914 22.7641L-6.10282e-05 22.5001V4.50006C-0.000124968 3.35224 0.438427 2.24779 1.22586 1.41267C2.0133 0.577551 3.0901 0.0748998 4.23594 0.00756121L4.49994 6.10352e-05H11.9999ZM20.5604 8.19606L24.8024 12.4396C25.0836 12.7209 25.2416 13.1023 25.2416 13.5001C25.2416 13.8978 25.0836 14.2793 24.8024 14.5606L20.5604 18.8041C20.279 19.0853 19.8973 19.2433 19.4994 19.2431C19.1015 19.243 18.72 19.0848 18.4387 18.8033C18.1574 18.5218 17.9995 18.1402 17.9996 17.7423C17.9998 17.3444 18.158 16.9628 18.4394 16.6816L20.1209 15.0001H11.9999C11.6021 15.0001 11.2206 14.842 10.9393 14.5607C10.658 14.2794 10.4999 13.8979 10.4999 13.5001C10.4999 13.1022 10.658 12.7207 10.9393 12.4394C11.2206 12.1581 11.6021 12.0001 11.9999 12.0001H20.1209L18.4394 10.3186C18.158 10.0373 17.9998 9.65575 17.9996 9.25784C17.9995 8.85994 18.1574 8.47827 18.4387 8.19681C18.72 7.91535 19.1015 7.75715 19.4994 7.75701C19.8973 7.75687 20.279 7.9148 20.5604 8.19606Z" fill="#D64438"/>
</svg>
