<svg width="25" height="27" viewBox="0 0 25 27" fill="none" xmlns="http://www.w3.org/2000/svg">
<path d="M22.772 8.0693L14.7348 1.02337C13.998 0.364383 13.0442 6.10352e-05 12.0557 6.10352e-05C11.0672 6.10352e-05 10.1134 0.364383 9.37666 1.02337L1.33947 8.0693C0.913997 8.44983 0.574468 8.91663 0.343496 9.43863C0.112523 9.96063 -0.00459359 10.5258 -5.61259e-05 11.0966V22.8041C-5.61259e-05 23.8699 0.42333 24.8921 1.17696 25.6457C1.93059 26.3993 2.95274 26.8227 4.01854 26.8227H20.0929C21.1587 26.8227 22.1808 26.3993 22.9345 25.6457C23.6881 24.8921 24.1115 23.8699 24.1115 22.8041V11.0832C24.1141 10.5147 23.9961 9.95206 23.7652 9.43252C23.5343 8.91297 23.1957 8.44833 22.772 8.0693ZM14.7348 24.1437H9.37666V17.446C9.37666 17.0907 9.51779 16.75 9.769 16.4988C10.0202 16.2476 10.3609 16.1065 10.7162 16.1065H13.3952C13.7505 16.1065 14.0912 16.2476 14.3424 16.4988C14.5936 16.75 14.7348 17.0907 14.7348 17.446V24.1437ZM21.4324 22.8041C21.4324 23.1594 21.2913 23.5001 21.0401 23.7513C20.7889 24.0025 20.4482 24.1437 20.0929 24.1437H17.4138V17.446C17.4138 16.3802 16.9905 15.3581 16.2368 14.6044C15.4832 13.8508 14.461 13.4274 13.3952 13.4274H10.7162C9.65039 13.4274 8.62825 13.8508 7.87461 14.6044C7.12098 15.3581 6.6976 16.3802 6.6976 17.446V24.1437H4.01854C3.66327 24.1437 3.32255 24.0025 3.07134 23.7513C2.82013 23.5001 2.679 23.1594 2.679 22.8041V11.0832C2.67925 10.8931 2.71999 10.7051 2.79851 10.5319C2.87704 10.3586 2.99156 10.2041 3.13445 10.0786L11.1716 3.04606C11.4161 2.83131 11.7303 2.71287 12.0557 2.71287C12.3811 2.71287 12.6954 2.83131 12.9398 3.04606L20.977 10.0786C21.1199 10.2041 21.2344 10.3586 21.3129 10.5319C21.3914 10.7051 21.4322 10.8931 21.4324 11.0832V22.8041Z" fill="#D64438"/>
</svg>
