<svg width="175" height="46" viewBox="0 0 175 46" fill="none" xmlns="http://www.w3.org/2000/svg">
<circle cx="16.2353" cy="16.2353" r="16.2353" fill="#FFB3B3"/>
<path d="M22.6278 36.6573C21.0268 36.6573 19.8317 36.2063 19.0425 35.3044C18.2533 34.3799 17.8587 33.1735 17.8587 31.6853V21.8088H14.7131C14.7131 21.0421 14.8822 20.4558 15.2205 20.05C15.5587 19.6441 16.021 19.4411 16.6072 19.4411H17.8925V16.2279C17.8925 15.4838 18.1293 14.9426 18.6028 14.6044C19.0989 14.2436 19.8317 14.0632 20.8014 14.0632V19.4411H25.2999C25.2999 21.0196 24.5896 21.8088 23.169 21.8088H20.8352V31.5838C20.8352 32.4857 20.993 33.1284 21.3087 33.5117C21.6469 33.8725 22.2445 34.0529 23.1014 34.0529C23.8906 34.0529 24.6347 33.85 25.3337 33.4441C25.6268 33.7372 25.7734 34.1318 25.7734 34.6279C25.7734 35.1691 25.4916 35.6426 24.9278 36.0485C24.3641 36.4544 23.5974 36.6573 22.6278 36.6573ZM34.9081 36.6573C33.5327 36.6573 32.2812 36.398 31.1537 35.8794C30.0488 35.3607 29.1807 34.6617 28.5493 33.7823C27.9405 32.8804 27.6361 31.8769 27.6361 30.772V25.225C27.6361 24.0975 27.9405 23.0715 28.5493 22.147C29.1807 21.2225 30.0488 20.4897 31.1537 19.9485C32.2586 19.4073 33.5101 19.1367 34.9081 19.1367C36.3062 19.1367 37.5577 19.4073 38.6626 19.9485C39.79 20.4897 40.6581 21.2225 41.267 22.147C41.8983 23.0715 42.214 24.0975 42.214 25.225V30.772C42.214 31.8769 41.8983 32.8804 41.267 33.7823C40.6356 34.6617 39.7675 35.3607 38.6626 35.8794C37.5577 36.398 36.3062 36.6573 34.9081 36.6573ZM34.9081 34.1206C36.2611 34.1206 37.3322 33.8049 38.1214 33.1735C38.9331 32.5196 39.339 31.674 39.339 30.6367V25.3264C39.339 24.2441 38.9331 23.3647 38.1214 22.6882C37.3322 22.0117 36.2611 21.6735 34.9081 21.6735C33.5778 21.6735 32.5067 22.0117 31.6949 22.6882C30.8831 23.3647 30.4773 24.2441 30.4773 25.3264V30.6367C30.4773 31.674 30.8719 32.5196 31.6611 33.1735C32.4729 33.8049 33.5552 34.1206 34.9081 34.1206ZM51.8144 36.6573C49.8751 36.6573 48.2967 36.1274 47.0791 35.0676C45.884 33.9853 45.2864 32.5534 45.2864 30.772V24.9882C45.2864 23.8382 45.5683 22.8235 46.132 21.9441C46.6957 21.0421 47.4737 20.3544 48.4658 19.8808C49.4805 19.3848 50.6418 19.1367 51.9497 19.1367C53.0095 19.1367 53.9903 19.3622 54.8923 19.8132C55.7943 20.2416 56.5835 20.8166 57.2599 21.5382L57.3614 21.3691C57.2036 21.1436 56.9668 20.8956 56.6511 20.625V14.672C56.6511 13.9279 56.8992 13.3642 57.3952 12.9808C57.8913 12.575 58.6354 12.372 59.6276 12.372V34.2558C59.6276 35 59.4021 35.5862 58.9511 36.0147C58.5227 36.4431 57.8237 36.6573 56.8541 36.6573V34.7632C57.1698 34.3573 57.384 34.0642 57.4967 33.8838L57.3952 33.7485C56.6737 34.6505 55.8732 35.3607 54.9938 35.8794C54.1144 36.398 53.0546 36.6573 51.8144 36.6573ZM52.457 34.0529C53.6521 34.0529 54.6555 33.7485 55.4673 33.1397C56.2791 32.5083 56.6849 31.7304 56.6849 30.8058V24.9544C56.6849 24.0524 56.3016 23.297 55.5349 22.6882C54.7683 22.0568 53.731 21.7411 52.4232 21.7411C51.0928 21.7411 50.0555 22.0456 49.3114 22.6544C48.5899 23.2407 48.2291 24.0637 48.2291 25.1235V30.6367C48.2291 31.7416 48.5899 32.5872 49.3114 33.1735C50.0555 33.7598 51.1041 34.0529 52.457 34.0529ZM70.7796 36.6573C69.4041 36.6573 68.1526 36.398 67.0252 35.8794C65.9203 35.3607 65.0521 34.6617 64.4208 33.7823C63.8119 32.8804 63.5075 31.8769 63.5075 30.772V25.225C63.5075 24.0975 63.8119 23.0715 64.4208 22.147C65.0521 21.2225 65.9203 20.4897 67.0252 19.9485C68.1301 19.4073 69.3815 19.1367 70.7796 19.1367C72.1776 19.1367 73.4291 19.4073 74.534 19.9485C75.6614 20.4897 76.5296 21.2225 77.1384 22.147C77.7698 23.0715 78.0855 24.0975 78.0855 25.225V30.772C78.0855 31.8769 77.7698 32.8804 77.1384 33.7823C76.507 34.6617 75.6389 35.3607 74.534 35.8794C73.4291 36.398 72.1776 36.6573 70.7796 36.6573ZM70.7796 34.1206C72.1325 34.1206 73.2036 33.8049 73.9928 33.1735C74.8046 32.5196 75.2105 31.674 75.2105 30.6367V25.3264C75.2105 24.2441 74.8046 23.3647 73.9928 22.6882C73.2036 22.0117 72.1325 21.6735 70.7796 21.6735C69.4492 21.6735 68.3781 22.0117 67.5663 22.6882C66.7546 23.3647 66.3487 24.2441 66.3487 25.3264V30.6367C66.3487 31.674 66.7433 32.5196 67.5325 33.1735C68.3443 33.8049 69.4266 34.1206 70.7796 34.1206ZM87.9226 36.6573C86.5471 36.6573 85.2956 36.398 84.1682 35.8794C83.0633 35.3607 82.1951 34.6617 81.5637 33.7823C80.9549 32.8804 80.6505 31.8769 80.6505 30.772V25.225C80.6505 24.0975 80.9549 23.0715 81.5637 22.147C82.1951 21.2225 83.0633 20.4897 84.1682 19.9485C85.2731 19.4073 86.5245 19.1367 87.9226 19.1367C89.3206 19.1367 90.5721 19.4073 91.677 19.9485C92.8044 20.4897 93.6726 21.2225 94.2814 22.147C94.9128 23.0715 95.2284 24.0975 95.2284 25.225V30.772C95.2284 31.8769 94.9128 32.8804 94.2814 33.7823C93.65 34.6617 92.7819 35.3607 91.677 35.8794C90.5721 36.398 89.3206 36.6573 87.9226 36.6573ZM87.9226 34.1206C89.2755 34.1206 90.3466 33.8049 91.1358 33.1735C91.9476 32.5196 92.3534 31.674 92.3534 30.6367V25.3264C92.3534 24.2441 91.9476 23.3647 91.1358 22.6882C90.3466 22.0117 89.2755 21.6735 87.9226 21.6735C86.5922 21.6735 85.5211 22.0117 84.7093 22.6882C83.8976 23.3647 83.4917 24.2441 83.4917 25.3264V30.6367C83.4917 31.674 83.8863 32.5196 84.6755 33.1735C85.4873 33.8049 86.5696 34.1206 87.9226 34.1206ZM104.398 36.6573C103.248 36.6573 102.165 36.4882 101.151 36.15C100.136 35.7892 99.313 35.2818 98.6816 34.6279C98.0728 33.974 97.7684 33.2073 97.7684 32.3279C97.7684 31.2456 98.4223 30.6593 99.7301 30.5691C99.9556 31.8318 100.486 32.7676 101.32 33.3764C102.177 33.9627 103.259 34.2558 104.567 34.2558C105.875 34.2558 106.889 34.0642 107.611 33.6808C108.333 33.2975 108.693 32.7112 108.693 31.922C108.693 31.3583 108.547 30.9073 108.254 30.5691C107.961 30.2083 107.487 29.9039 106.833 29.6558C106.202 29.3853 105.288 29.1259 104.093 28.8779C102.605 28.5397 101.421 28.1789 100.542 27.7956C99.6625 27.4122 98.986 26.9049 98.5125 26.2735C98.0615 25.6421 97.836 24.8078 97.836 23.7706C97.836 22.8911 98.1066 22.1019 98.6478 21.4029C99.189 20.6813 99.9331 20.1289 100.88 19.7456C101.85 19.3397 102.943 19.1367 104.161 19.1367C105.288 19.1367 106.348 19.2946 107.34 19.6103C108.355 19.9259 109.167 20.3769 109.776 20.9632C110.407 21.5495 110.723 22.2259 110.723 22.9926C110.723 23.5112 110.52 23.9284 110.114 24.2441C109.708 24.5372 109.144 24.7063 108.423 24.7514C108.355 23.7593 107.949 22.9813 107.205 22.4176C106.484 21.8313 105.469 21.5382 104.161 21.5382C103.079 21.5382 102.222 21.7411 101.59 22.147C100.959 22.5529 100.643 23.0941 100.643 23.7706C100.643 24.4921 100.937 25.0333 101.523 25.3941C102.132 25.7323 103.158 26.0593 104.601 26.375C106.968 26.8485 108.705 27.5024 109.81 28.3367C110.937 29.1485 111.501 30.3098 111.501 31.8206C111.501 33.3539 110.881 34.549 109.64 35.4058C108.4 36.2402 106.653 36.6573 104.398 36.6573ZM115.386 14.875C115.386 14.0632 115.634 13.4431 116.13 13.0147C116.626 12.5862 117.359 12.372 118.328 12.372V21.2676C118.013 21.6284 117.765 21.9441 117.584 22.2147L117.72 22.35C118.419 21.4029 119.298 20.6362 120.358 20.05C121.418 19.4411 122.568 19.1367 123.808 19.1367C125.634 19.1367 127.077 19.6779 128.137 20.7603C129.197 21.8426 129.727 23.2407 129.727 24.9544V34.4926C129.727 35.2367 129.479 35.7892 128.983 36.15C128.509 36.4882 127.776 36.6573 126.784 36.6573V25.2588C126.784 24.1764 126.48 23.3196 125.871 22.6882C125.262 22.0568 124.338 21.7411 123.097 21.7411C122.263 21.7411 121.474 21.9215 120.73 22.2823C120.008 22.6206 119.422 23.0941 118.971 23.7029C118.543 24.2892 118.328 24.9318 118.328 25.6308V34.4926C118.328 35.2367 118.08 35.7892 117.584 36.15C117.111 36.4882 116.378 36.6573 115.386 36.6573V14.875ZM148.185 35.9132C148.004 36.1387 147.779 36.3191 147.508 36.4544C147.238 36.5897 146.933 36.6573 146.595 36.6573C146.234 36.6573 145.919 36.5897 145.648 36.4544C145.377 36.3191 145.129 36.071 144.904 35.7103L139.526 27.2882L137.023 29.5206V34.5264C137.023 35.947 136.053 36.6573 134.114 36.6573V14.8073C134.114 13.1838 135.095 12.372 137.057 12.372L137.023 26.5103L145.208 19.1706C145.862 19.7794 146.189 20.298 146.189 20.7264C146.189 21.0421 146.11 21.3014 145.952 21.5044C145.817 21.6848 145.546 21.9554 145.141 22.3161L141.352 25.6647L148.185 35.9132ZM156.343 36.6573C154.404 36.6573 152.837 36.1387 151.642 35.1014C150.469 34.0642 149.883 32.7 149.883 31.0088C149.883 29.2951 150.503 27.9196 151.743 26.8823C152.984 25.8225 154.618 25.2926 156.648 25.2926C158.812 25.2926 160.594 26.0593 161.992 27.5926L162.127 27.4573C161.879 27.1867 161.597 26.9049 161.282 26.6117V25.1911C161.282 24.0411 160.921 23.1505 160.199 22.5191C159.478 21.8877 158.452 21.572 157.121 21.572C154.754 21.572 153.062 22.5078 152.048 24.3794C151.687 24.199 151.383 23.9622 151.135 23.6691C150.909 23.3534 150.796 23.0377 150.796 22.722C150.796 22.1132 151.101 21.5382 151.71 20.997C152.318 20.4333 153.119 19.9823 154.111 19.6441C155.126 19.3058 156.185 19.1367 157.29 19.1367C159.433 19.1367 161.112 19.6666 162.33 20.7264C163.57 21.7862 164.19 23.2519 164.19 25.1235V34.3911C164.19 35.1804 163.965 35.7554 163.514 36.1161C163.063 36.4769 162.353 36.6573 161.383 36.6573V35.0676C161.857 34.5715 162.116 34.2784 162.161 34.1882L162.026 34.0529C160.56 35.7892 158.666 36.6573 156.343 36.6573ZM156.851 34.3235C158.249 34.3235 159.342 34.0304 160.132 33.4441C160.943 32.8578 161.349 32.046 161.349 31.0088C161.349 29.9715 160.955 29.1485 160.165 28.5397C159.376 27.9308 158.294 27.6264 156.918 27.6264C155.633 27.6264 154.618 27.9308 153.874 28.5397C153.153 29.1259 152.792 29.949 152.792 31.0088C152.792 32.0686 153.141 32.8916 153.84 33.4779C154.562 34.0416 155.565 34.3235 156.851 34.3235ZM170.15 36.6573C169.519 36.6573 168.989 36.4544 168.561 36.0485C168.132 35.6201 167.918 35.0902 167.918 34.4588C167.918 33.8274 168.132 33.2975 168.561 32.8691C168.989 32.4407 169.519 32.2264 170.15 32.2264C170.759 32.2264 171.289 32.4519 171.74 32.9029C172.191 33.3313 172.416 33.85 172.416 34.4588C172.416 35.0676 172.191 35.5862 171.74 36.0147C171.289 36.4431 170.759 36.6573 170.15 36.6573Z" fill="black"/>
<circle cx="167.765" cy="32.4706" r="6.76471" fill="#FFB3B3"/>
</svg>
