<svg width="29" height="29" viewBox="0 0 29 29" fill="none" xmlns="http://www.w3.org/2000/svg">
<path d="M12.1735 3.82923C12.7652 1.39034 16.2347 1.39034 16.8263 3.82923C16.9151 4.19562 17.0891 4.53587 17.3343 4.82228C17.5794 5.1087 17.8887 5.33319 18.237 5.47749C18.5852 5.62178 18.9627 5.6818 19.3385 5.65266C19.7144 5.62352 20.0781 5.50604 20.3999 5.30978C22.543 4.00423 24.9972 6.457 23.6916 8.60145C23.4956 8.92319 23.3783 9.28664 23.3493 9.66225C23.3202 10.0379 23.3802 10.415 23.5243 10.7631C23.6684 11.1112 23.8926 11.4203 24.1787 11.6654C24.4648 11.9105 24.8047 12.0847 25.1708 12.1737C27.6097 12.7653 27.6097 16.2348 25.1708 16.8264C24.8044 16.9152 24.4641 17.0893 24.1777 17.3344C23.8913 17.5795 23.6668 17.8888 23.5225 18.2371C23.3782 18.5854 23.3182 18.9628 23.3473 19.3387C23.3765 19.7145 23.494 20.0782 23.6902 20.4001C24.9958 22.5431 22.543 24.9973 20.3985 23.6917C20.0768 23.4958 19.7134 23.3785 19.3378 23.3494C18.9621 23.3203 18.585 23.3803 18.2369 23.5244C17.8888 23.6685 17.5797 23.8928 17.3346 24.1788C17.0895 24.4649 16.9153 24.8048 16.8263 25.1709C16.2347 27.6098 12.7652 27.6098 12.1735 25.1709C12.0848 24.8045 11.9107 24.4643 11.6656 24.1778C11.4205 23.8914 11.1112 23.6669 10.7629 23.5226C10.4146 23.3783 10.0372 23.3183 9.66135 23.3475C9.28549 23.3766 8.92182 23.4941 8.59994 23.6903C6.45688 24.9959 4.00272 22.5431 5.30827 20.3987C5.50425 20.0769 5.62154 19.7135 5.65061 19.3379C5.67968 18.9623 5.61972 18.5851 5.47559 18.237C5.33147 17.889 5.10724 17.5798 4.82115 17.3347C4.53506 17.0896 4.19517 16.9155 3.82911 16.8264C1.39022 16.2348 1.39022 12.7653 3.82911 12.1737C4.19549 12.0849 4.53574 11.9109 4.82216 11.6657C5.10858 11.4206 5.33307 11.1113 5.47736 10.763C5.62166 10.4148 5.68168 10.0373 5.65253 9.66147C5.62339 9.28561 5.50591 8.92194 5.30966 8.60006C4.00411 6.45701 6.45688 4.00284 8.60133 5.30839C9.99022 6.15284 11.7902 5.40562 12.1735 3.82923Z" stroke="#D64438" stroke-width="2.77778" stroke-linecap="round" stroke-linejoin="round"/>
<path d="M14.5013 18.6666C16.8025 18.6666 18.668 16.8011 18.668 14.4999C18.668 12.1987 16.8025 10.3332 14.5013 10.3332C12.2001 10.3332 10.3347 12.1987 10.3347 14.4999C10.3347 16.8011 12.2001 18.6666 14.5013 18.6666Z" stroke="#D64438" stroke-width="2.77778" stroke-linecap="round" stroke-linejoin="round"/>
</svg>
