<svg width="26" height="27" viewBox="0 0 26 27" fill="none" xmlns="http://www.w3.org/2000/svg">
<path d="M12.9998 21.0863L18.623 24.5613C19.6528 25.1981 20.913 24.2567 20.642 23.0661L19.1515 16.5315L24.1243 12.129C25.0321 11.326 24.5443 9.80309 23.3519 9.70617L16.8073 9.13855L14.2464 2.96392C13.7857 1.84252 12.2139 1.84252 11.7532 2.96392L9.19228 9.12471L2.64768 9.69233C1.45529 9.78924 0.967493 11.3121 1.87534 12.1151L6.84815 16.5176L5.35766 23.0522C5.08666 24.2429 6.3468 25.1843 7.3766 24.5474L12.9998 21.0863Z" fill="#D64438"/>
<path d="M24.6179 9.03673L17.266 8.34383L14.3952 1.0023C13.8787 -0.33402 12.1167 -0.33402 11.6003 1.0023L8.72941 8.36032L1.39277 9.03673C0.0560762 9.15222 -0.490754 10.967 0.526957 11.9238L6.10158 17.1702L4.43072 24.9571C4.12692 26.3759 5.53956 27.4978 6.69398 26.7389L12.9977 22.6144L19.3014 26.7554C20.4559 27.5143 21.8685 26.3924 21.5647 24.9736L19.8939 17.1702L25.4685 11.9238C26.4862 10.967 25.9545 9.15222 24.6179 9.03673ZM12.9977 19.5293L7.28638 23.2743L8.80535 16.2133L3.76237 11.4619L10.4155 10.835L12.9977 4.18638L15.5952 10.8515L22.2483 11.4784L17.2053 16.2298L18.7242 23.2908L12.9977 19.5293Z" fill="#D64438"/>
</svg>
