<svg width="26" height="27" viewBox="0 0 26 27" fill="none" xmlns="http://www.w3.org/2000/svg">
<path d="M24.6178 8.97398L17.266 8.28588L14.3951 0.995343C13.8787 -0.331699 12.1167 -0.331699 11.6002 0.995343L8.72934 8.30227L1.39271 8.97398C0.0560153 9.08866 -0.490815 10.8908 0.526896 11.841L6.10152 17.0509L4.43065 24.7838C4.12686 26.1928 5.5395 27.3068 6.69392 26.5532L12.9977 22.4574L19.3014 26.5696C20.4558 27.3232 21.8684 26.2091 21.5647 24.8002L19.8938 17.0509L25.4684 11.841C26.4861 10.8908 25.9545 9.08866 24.6178 8.97398ZM12.9977 19.3937L7.28632 23.1127L8.80529 16.1007L3.76231 11.3823L10.4154 10.7598L12.9977 4.15731L15.5951 10.7761L22.2482 11.3987L17.2052 16.1171L18.7242 23.1291L12.9977 19.3937Z" fill="#D64438"/>
</svg>
