<svg width="24" height="27" viewBox="0 0 24 27" fill="none" xmlns="http://www.w3.org/2000/svg">
<path d="M17.3332 16H6.66655C6.31292 16 5.97378 16.1405 5.72374 16.3906C5.47369 16.6406 5.33321 16.9798 5.33321 17.3334C5.33321 17.687 5.47369 18.0261 5.72374 18.2762C5.97378 18.5262 6.31292 18.6667 6.66655 18.6667H17.3332C17.6868 18.6667 18.026 18.5262 18.276 18.2762C18.5261 18.0261 18.6665 17.687 18.6665 17.3334C18.6665 16.9798 18.5261 16.6406 18.276 16.3906C18.026 16.1405 17.6868 16 17.3332 16ZM17.3332 10.6667H9.33321C8.97959 10.6667 8.64045 10.8072 8.3904 11.0572C8.14035 11.3073 7.99988 11.6464 7.99988 12C7.99988 12.3537 8.14035 12.6928 8.3904 12.9429C8.64045 13.1929 8.97959 13.3334 9.33321 13.3334H17.3332C17.6868 13.3334 18.026 13.1929 18.276 12.9429C18.5261 12.6928 18.6665 12.3537 18.6665 12C18.6665 11.6464 18.5261 11.3073 18.276 11.0572C18.026 10.8072 17.6868 10.6667 17.3332 10.6667ZM22.6665 2.66671H18.6665V1.33338C18.6665 0.979757 18.5261 0.640618 18.276 0.39057C18.026 0.140521 17.6868 4.57764e-05 17.3332 4.57764e-05C16.9796 4.57764e-05 16.6405 0.140521 16.3904 0.39057C16.1404 0.640618 15.9999 0.979757 15.9999 1.33338V2.66671H13.3332V1.33338C13.3332 0.979757 13.1927 0.640618 12.9427 0.39057C12.6926 0.140521 12.3535 4.57764e-05 11.9999 4.57764e-05C11.6463 4.57764e-05 11.3071 0.140521 11.0571 0.39057C10.807 0.640618 10.6665 0.979757 10.6665 1.33338V2.66671H7.99988V1.33338C7.99988 0.979757 7.8594 0.640618 7.60935 0.39057C7.35931 0.140521 7.02017 4.57764e-05 6.66655 4.57764e-05C6.31292 4.57764e-05 5.97378 0.140521 5.72374 0.39057C5.47369 0.640618 5.33321 0.979757 5.33321 1.33338V2.66671H1.33321C0.979589 2.66671 0.640451 2.80719 0.390402 3.05724C0.140354 3.30729 -0.00012207 3.64642 -0.00012207 4.00005V22.6667C-0.00012207 23.7276 0.421305 24.745 1.17145 25.4951C1.9216 26.2453 2.93901 26.6667 3.99988 26.6667H19.9999C21.0607 26.6667 22.0782 26.2453 22.8283 25.4951C23.5785 24.745 23.9999 23.7276 23.9999 22.6667V4.00005C23.9999 3.64642 23.8594 3.30729 23.6094 3.05724C23.3593 2.80719 23.0202 2.66671 22.6665 2.66671ZM21.3332 22.6667C21.3332 23.0203 21.1927 23.3595 20.9427 23.6095C20.6926 23.8596 20.3535 24 19.9999 24H3.99988C3.64626 24 3.30712 23.8596 3.05707 23.6095C2.80702 23.3595 2.66654 23.0203 2.66654 22.6667V5.33338H5.33321V6.66671C5.33321 7.02033 5.47369 7.35947 5.72374 7.60952C5.97378 7.85957 6.31292 8.00004 6.66655 8.00004C7.02017 8.00004 7.35931 7.85957 7.60935 7.60952C7.8594 7.35947 7.99988 7.02033 7.99988 6.66671V5.33338H10.6665V6.66671C10.6665 7.02033 10.807 7.35947 11.0571 7.60952C11.3071 7.85957 11.6463 8.00004 11.9999 8.00004C12.3535 8.00004 12.6926 7.85957 12.9427 7.60952C13.1927 7.35947 13.3332 7.02033 13.3332 6.66671V5.33338H15.9999V6.66671C15.9999 7.02033 16.1404 7.35947 16.3904 7.60952C16.6405 7.85957 16.9796 8.00004 17.3332 8.00004C17.6868 8.00004 18.026 7.85957 18.276 7.60952C18.5261 7.35947 18.6665 7.02033 18.6665 6.66671V5.33338H21.3332V22.6667Z" fill="#D64438"/>
</svg>
