<svg width="26" height="26" viewBox="0 0 26 26" fill="none" xmlns="http://www.w3.org/2000/svg">
<path d="M12.1314 25.9995C11.4484 26.0014 10.7718 25.8678 10.1408 25.6063C9.5098 25.3448 8.93699 24.9606 8.45557 24.4761L1.52326 17.5438C0.540599 16.5629 -0.00012207 15.2561 -0.00012207 13.8679C-0.00012207 12.4797 0.540599 11.173 1.52326 10.1903C3.48683 8.22675 6.9114 8.22675 8.87498 10.1903L10.9339 12.2492L16.2527 2.67743C16.7514 1.7778 17.5059 1.0464 18.4206 0.575816C19.3353 0.105237 20.369 -0.0833521 21.391 0.033927C22.4129 0.151206 23.377 0.569079 24.1613 1.23464C24.9456 1.9002 25.5148 2.78351 25.7968 3.77274C25.9867 4.42926 26.0442 5.11699 25.966 5.79594C25.8877 6.4749 25.6753 7.13152 25.341 7.72762L16.6756 23.3253C16.2232 24.1339 15.564 24.8077 14.7655 25.2776C13.967 25.7475 13.0579 25.9966 12.1314 25.9995ZM5.19912 12.1348C4.73465 12.1348 4.30138 12.3151 3.97383 12.6426C3.64628 12.9702 3.46604 13.4035 3.46604 13.8679C3.46604 14.3324 3.64628 14.7657 3.97383 15.0932L10.9061 22.0255C11.0961 22.2145 11.3272 22.3569 11.5814 22.4417C11.8355 22.5265 12.1059 22.5513 12.3712 22.5142C12.6366 22.4771 12.8897 22.3791 13.1109 22.2279C13.3321 22.0767 13.5153 21.8763 13.6461 21.6425L22.3115 6.0448C22.4228 5.84625 22.4936 5.6276 22.5197 5.40151C22.5459 5.17542 22.527 4.94638 22.4641 4.72766C22.4019 4.50802 22.2967 4.30295 22.1544 4.12442C22.0122 3.94589 21.8358 3.79747 21.6356 3.68781C21.233 3.4729 20.7626 3.42289 20.3237 3.54837C19.8849 3.67384 19.512 3.96496 19.2839 4.36025L11.7328 17.9493L6.42614 12.6426C6.26527 12.4812 6.07401 12.3532 5.86341 12.266C5.65281 12.1789 5.42704 12.1343 5.19912 12.1348Z" fill="#D64438"/>
</svg>
