<svg width="23" height="30" viewBox="0 0 23 30" fill="none" xmlns="http://www.w3.org/2000/svg">
<path d="M15.9577 28H7.19987C6.52117 28.0038 5.86528 27.7552 5.35954 27.3026C4.8538 26.8499 4.53429 26.2255 4.46303 25.5505L1.99988 2.00006H21.1577L18.6809 25.5505C18.6099 26.2232 18.2923 26.8457 17.7895 27.298C17.2866 27.7503 16.6341 28.0004 15.9577 28Z" stroke="#D64438" stroke-width="2.73684" stroke-linecap="round" stroke-linejoin="round"/>
<path d="M3.36829 14.3158C4.55263 13.4276 5.99312 12.9474 7.47354 12.9474C8.95397 12.9474 10.3945 13.4276 11.5788 14.3158C12.7631 15.2041 14.2036 15.6843 15.6841 15.6843C17.1645 15.6843 18.605 15.2041 19.7893 14.3158" stroke="#D64438" stroke-width="2.73684" stroke-linecap="round" stroke-linejoin="round"/>
</svg>
